<?xml version="1.0" encoding="UTF-8" standalone="no"?><svg viewBox="0 0 800 800" xmlns="http://www.w3.org/2000/svg" xmlns:xlink="http://www.w3.org/1999/xlink"><style>:root>svg{display:none}:root>svg:target{display:block}</style><svg viewBox="0 0 211.667 211.667" id="contacts" xmlns="http://www.w3.org/2000/svg"><g transform="matrix(2.69339 0 0 2.69339 -581.615 -77.758)"><circle style="fill:#227add;fill-opacity:1;stroke:none;stroke-width:.599413;stroke-opacity:1" cx="255.315" cy="68.376" r="37.659"/><circle style="fill:#fff;fill-opacity:1;stroke:none;stroke-width:.112987;stroke-dasharray:none;stroke-opacity:1" cx="255.315" cy="57.685" r="8.138"/><path style="fill:#fff;fill-opacity:1;stroke:none;stroke-width:.106286;stroke-dasharray:none;stroke-opacity:1" d="M272.714-85.431a17.4 17.4 0 0 1-8.76 15.102 17.4 17.4 0 0 1-17.458-.103 17.4 17.4 0 0 1-8.58-15.205" transform="scale(1 -1)"/></g></svg><svg fill="none" viewBox="0 0 25 25" id="icon_facebook" xmlns="http://www.w3.org/2000/svg"><g clip-path="url(#ba)"><path d="M12.5.5C5.874.5.5 5.872.5 12.5s5.373 12 12 12c6.628 0 12-5.372 12-12s-5.372-12-12-12Zm2.843 8.293h-1.804c-.213 0-.451.28-.451.655v1.302h2.256l-.341 1.857h-1.915v5.577h-2.129v-5.577H9.028V10.75h1.931V9.658c0-1.568 1.088-2.842 2.58-2.842h1.804v1.977Z" fill="#F1F6FA"/></g><defs><clipPath id="ba"><path fill="#fff" d="M0 0h25v25H0z"/></clipPath></defs></svg></svg>